<svg width="37.000000" height="46.000000" viewBox="0 0 37 46" fill="none" xmlns="http://www.w3.org/2000/svg" xmlns:xlink="http://www.w3.org/1999/xlink">
	<desc>
			Created with Pixso.
	</desc>
	<defs/>
	<path id="Shape" d="M27.3143 -0.947266C24.9894 -0.849609 22.1724 0.601562 20.5051 2.55225C19.0062 4.28467 17.6979 7.04932 18.0507 9.70068C20.6464 9.90381 23.2913 8.3833 24.907 6.43164C26.5195 4.47607 27.6113 1.7627 27.3143 -0.947266ZM33.7313 39.5171C31.8025 42.3335 29.8073 45.1323 26.6572 45.1909C25.1416 45.2197 24.1294 44.7822 23.0773 44.3276C21.9774 43.8521 20.8337 43.3574 19.0256 43.3574C15.4841 43.3574 14.3763 45.1323 11.4493 45.25C8.40814 45.3633 6.09576 42.208 4.15106 39.4043C0.178162 33.6719 -2.85425 23.1953 1.22394 16.1255C3.24347 12.6143 6.86218 10.3926 10.7836 10.334C12.4766 10.3027 14.1164 10.9531 15.5516 11.5225C16.6483 11.957 17.6254 12.3447 18.4155 12.3447C19.1253 12.3447 20.0764 11.9702 21.1852 11.5337C22.9301 10.8467 25.0656 10.0063 27.2668 10.2285C28.7737 10.2905 33.0031 10.835 35.7192 14.8032C35.7121 14.8081 35.6998 14.8159 35.6826 14.8267C35.187 15.1353 30.6729 17.9478 30.73 23.6021C30.7891 30.5903 36.8625 32.9131 36.933 32.9443C36.8781 33.1089 35.9622 36.2607 33.7313 39.5171Z" clip-rule="evenodd" fill="#FFFFFF" fill-opacity="1.000000" fill-rule="evenodd"/>
</svg>
