<svg width="40.000000" height="45.000000" viewBox="0 0 40 45" fill="none" xmlns="http://www.w3.org/2000/svg" xmlns:xlink="http://www.w3.org/1999/xlink">
	<desc>
			Created with Pixso.
	</desc>
	<defs/>
	<path id="Shape" d="M-0.606445 2.92871L-0.606445 41.1514C-0.606445 42.4814 0.173584 43.6318 1.30664 44.1807L23.7366 22.0337L1.31567 -0.10498C0.177734 0.441895 -0.606445 1.59521 -0.606445 2.92871ZM30.8964 14.9189L6.55328 1.32373L25.7521 19.895L30.8964 14.9189ZM38.2296 20.0347C38.9944 20.6606 39.488 21.6475 39.488 22.7568C39.488 23.8501 39.0095 24.8232 38.2642 25.4502L33.3787 28.4663L28.0325 22.7505L33.3751 17.0376L38.2296 20.0347ZM6.55328 42.752L30.8964 29.1567L25.7521 24.1807L6.55328 42.752Z" clip-rule="evenodd" fill="#FFFFFF" fill-opacity="1.000000" fill-rule="evenodd"/>
</svg>
